<svg>
    <defs>
        <g id="trend" transform="translate(6, 1)">
            <path d="M11.2812 0C11.2812 0 12.16 3.10595 12.16 5.62588C12.16 8.04032 10.5569 9.99765 8.11063 9.99765C5.6525 9.99765 3.8 8.04032 3.8 5.62588L3.83562 5.20394C1.43688 8.01688 0 11.662 0 15.6235C0 20.804 4.25125 25 9.5 25C14.7487 25 19 20.804 19 15.6235C19 9.30614 15.9244 3.66854 11.2812 0ZM9.15563 21.4838C7.04187 21.4838 5.33187 19.8429 5.33187 17.8036C5.33187 15.9048 6.57875 14.5687 8.66875 14.1467C10.7706 13.7248 12.9438 12.7286 14.155 11.1228C14.6181 12.6348 14.8556 14.2288 14.8556 15.8579C14.8556 18.9639 12.3025 21.4838 9.15563 21.4838Z" fill="grey"/>
        </g>
        <g id="explore" transform="translate(2, 2)">
            <path d="M23 11.7647C23 17.6913 18.0939 22.5294 12 22.5294C5.90611 22.5294 1 17.6913 1 11.7647C1 5.8381 5.90611 1 12 1C18.0939 1 23 5.8381 23 11.7647Z" stroke="grey" stroke-width="2" style="fill: none;"></path>            <path d="M1.5 8.82353H22.5M1.5 14.7059H16.5H22.5" stroke="grey"/>
            <path d="M10.5 1.47059C6.46741 9.51009 6.53273 14.0191 10.5 22.0588" stroke="grey" stroke-linecap="square" style="fill: none;"></path><path d="M13.5 1.47059C17.5337 9.51009 17.4661 14.0191 13.5 22.0588" stroke="grey" stroke-linecap="square" style="fill: none;"></path>        </g>
        <g id="favorites" transform="translate(0, 3)">
            <path d="M11.9393 4.56066L12.8887 5.51L13.937 4.6713C14.4938 4.22592 14.9619 3.83155 15.3725 3.48567C17.0071 2.10859 17.7295 1.5 19.5 1.5C22.3757 1.5 24.5 3.53097 24.5 6.1875C24.5 8.02866 23.5445 9.9093 21.3673 12.3134C19.3925 14.4942 16.6142 16.8945 13.1234 19.9106C13.0824 19.946 13.0412 19.9815 13 20.0172C12.9587 19.9815 12.9175 19.9459 12.8764 19.9104C9.38566 16.8944 6.60752 14.4941 4.63267 12.3134C2.45547 9.9093 1.5 8.02865 1.5 6.1875C1.5 3.53097 3.6243 1.5 6.5 1.5C8.71329 1.5 9.93016 2.55148 11.9393 4.56066Z" stroke="grey" stroke-width="3" style="fill: none;"></path>        
        </g>
        <g id="upload" transform="translate(1, 3)">
            <path fill-rule="evenodd" clip-rule="evenodd" d="M10.125 0H16.875L19.125 3.35294H24.75C25.9926 3.35294 27 4.35372 27 5.58824V16.7647C27 17.9992 25.9926 19 24.75 19H2.25C1.00736 19 0 17.9992 0 16.7647V5.58824C0 4.35372 1.00736 3.35294 2.25 3.35294H7.875L10.125 0ZM15.4488 15.2072C14.8592 15.4891 14.1981 15.6471 13.5 15.6471C11.0147 15.6471 9 13.6455 9 11.1765C9 8.70743 11.0147 6.70588 13.5 6.70588C14.731 6.70588 15.8465 7.19694 16.659 7.99263C17.6332 7.18904 18.8848 6.70588 20.25 6.70588C23.3566 6.70588 25.875 9.20782 25.875 12.2941C25.875 15.3804 23.3566 17.8824 20.25 17.8824C18.2178 17.8824 16.4373 16.8117 15.4488 15.2072Z" fill="grey"/>
            <path fill-rule="evenodd" clip-rule="evenodd" d="M20.25 16.7647C22.7353 16.7647 24.75 14.7632 24.75 12.2941C24.75 9.82508 22.7353 7.82353 20.25 7.82353C17.7647 7.82353 15.75 9.82508 15.75 12.2941C15.75 14.7632 17.7647 16.7647 20.25 16.7647ZM20.8125 10.0588C20.8125 9.75019 20.5607 9.5 20.25 9.5C19.9393 9.5 19.6875 9.75019 19.6875 10.0588V11.7353H18C17.6893 11.7353 17.4375 11.9855 17.4375 12.2941C17.4375 12.6027 17.6893 12.8529 18 12.8529H19.6875V14.5294C19.6875 14.838 19.9393 15.0882 20.25 15.0882C20.5607 15.0882 20.8125 14.838 20.8125 14.5294V12.8529H22.5C22.8107 12.8529 23.0625 12.6027 23.0625 12.2941C23.0625 11.9855 22.8107 11.7353 22.5 11.7353H20.8125V10.0588Z" fill="grey"/>
        </g>
        <g id="menu" width="25" height="25" viewBox="0 0 25 25" fill="none" xmlns="http://www.w3.org/2000/svg">
            <path d="M3 7C3 5.34315 4.34315 4 6 4H22C23.6569 4 25 5.34315 25 7V7H3V7Z" fill="grey"/>
            <path d="M5 12.5C5 11.6716 5.67157 11 6.5 11H18.5C19.3284 11 20 11.6716 20 12.5V12.5C20 13.3284 19.3284 14 18.5 14H6.5C5.67157 14 5 13.3284 5 12.5V12.5Z" fill="grey"/>
            <path d="M0 18H21V18C21 19.6569 19.6569 21 18 21H3C1.34315 21 0 19.6569 0 18V18Z" fill="grey"/>
        </g>
        <g id="menu2" width="25" height="25" viewBox="0 0 25 25" fill="none" xmlns="http://www.w3.org/2000/svg">
            <path d="M2 5.5C2 4.67157 2.67157 4 3.5 4H21.5C22.3284 4 23 4.67157 23 5.5V5.5C23 6.32843 22.3284 7 21.5 7H3.5C2.67157 7 2 6.32843 2 5.5V5.5Z" fill="grey"/>
            <path d="M6 12.5C6 11.6716 6.67157 11 7.5 11H21.5C22.3284 11 23 11.6716 23 12.5V12.5C23 13.3284 22.3284 14 21.5 14H7.5C6.67157 14 6 13.3284 6 12.5V12.5Z" fill="grey"/>
            <path d="M12 19.5C12 18.6716 12.6716 18 13.5 18H21.5C22.3284 18 23 18.6716 23 19.5V19.5C23 20.3284 22.3284 21 21.5 21H13.5C12.6716 21 12 20.3284 12 19.5V19.5Z" fill="grey"/>
        </g>
        <g id="filter_circle" transform="translate(5, 0)">
            <circle cx="35.5" cy="37.5" r="31.5" fill="grey"/>
            <path d="M21 31.75H51" stroke="#4F4F4F" stroke-width="4" stroke-linecap="round"/>
            <path d="M32.25 50.5H39.75" stroke="#4F4F4F" stroke-width="4" stroke-linecap="round"/>
            <path d="M26.625 41.125H45.375" stroke="#4F4F4F" stroke-width="4" stroke-linecap="round"/>
        </g>
        <g id="marker" transform="translate(5, 0)">
            <path fill-rule="evenodd" clip-rule="evenodd" d="M20.4005 16.7153C21.4154 15.0497 22 13.0931 22 11C22 4.92487 17.0751 0 11 0C4.92487 0 0 4.92487 0 11C0 13.0871 0.581249 15.0384 1.5907 16.7009L1.55117 16.7203L10.1421 34.2203L10.5707 35.0934L11.0313 34.2368L20.4404 16.7368L20.4005 16.7153ZM17.6974 19.7268C15.8425 21.1524 13.5202 22 11 22C8.35844 22 5.93436 21.0689 4.03805 19.517L10.6111 32.9066L17.6974 19.7268Z" fill="#475467"/>
        </g>
    </defs>
</svg>
