<svg width="21" height="30" viewBox="0 0 21 30" fill="none" xmlns="http://www.w3.org/2000/svg">
<path fill-rule="evenodd" clip-rule="evenodd" d="M21 9.99305C21 11.8144 20.488 13.522 19.5935 14.9924L19.6042 14.9924L10.5444 30.0002L1.41772 15.0292L1.42895 15.0292C0.520574 13.5504 0 11.8296 0 9.99305C0 4.47411 4.70101 0.00012207 10.5 0.00012207C16.299 0.00012207 21 4.47411 21 9.99305ZM17.3656 10.7288C17.0955 12.0221 16.4288 13.2099 15.4498 14.1423L10.5001 9.42824L5.55032 14.1423C4.57135 13.2099 3.90466 12.0221 3.63457 10.7288C3.36447 9.43564 3.50309 8.09519 4.03291 6.87702C4.56272 5.65885 5.45993 4.61765 6.61107 3.88511C7.76222 3.15257 9.11559 2.76158 10.5001 2.76158C11.8845 2.76158 13.2379 3.15257 14.3891 3.88511C15.5402 4.61765 16.4374 5.65885 16.9672 6.87702C17.497 8.09519 17.6357 9.43564 17.3656 10.7288Z" fill="#6b23c1"/>
</svg>
