<svg width="30" height="30" viewBox="0 0 30 30" fill="none" xmlns="http://www.w3.org/2000/svg">
<path fill-rule="evenodd" clip-rule="evenodd" d="M18.032 8.71182L18.0032 8.69125L17.9511 8.67847C15.0535 8.93926 13.5596 10.0482 11.2499 12.841C12.1127 10.4358 13.7849 8.20985 15.0839 7.09952C13.3718 6.49313 11.596 6.46579 8.98836 6.72706C12.4002 5.10435 17.0663 4.94419 17.8646 5.77254C17.9153 5.82507 17.9602 5.88276 17.9998 5.94474C18.0797 5.82425 18.1734 5.7222 18.2833 5.64642C19.1561 5.0449 23.2794 6.4703 26 8.99999C23.8584 8.08865 22.3255 7.63188 20.7798 7.69538C22.2308 8.73258 24.3387 11.0768 25.3735 13.398C22.8491 10.6794 21.2206 9.49122 18.0357 8.69931L18.032 8.71182ZM17.8899 9.51228C18.1202 9.46026 18.3555 9.57646 18.4542 9.79096C19.3755 11.7927 20.0128 13.4003 20.3542 15.0548C20.6971 16.7163 20.7366 18.3997 20.4969 20.5552C20.4681 20.8148 20.2443 21.0085 19.9833 20.9997C19.8068 20.9938 19.6585 20.9734 19.5024 20.9153C19.3922 20.8743 19.2817 20.8138 19.1814 20.759L19.1814 20.759L19.1265 20.7291C18.875 20.5934 18.4181 20.3583 17.332 19.9709C17.2055 19.9258 17.1025 19.8317 17.0461 19.7097C16.9898 19.5878 16.9849 19.4483 17.0325 19.3227C17.6931 17.5807 17.8238 16.2165 17.7844 14.8196C17.767 14.2022 17.7166 13.5814 17.6619 12.9082L17.6619 12.9081L17.6376 12.6072C17.5745 11.8205 17.5125 10.9679 17.5001 10.0065C17.497 9.77036 17.6595 9.5643 17.8899 9.51228ZM18.3709 19.1483L18.3709 19.1484L18.1819 19.0727L18.3709 19.1483ZM23.6064 21.1916C22.8471 22.1427 21.7893 22.3483 20.3893 22.1089C19.1692 21.9003 17.7992 21.3717 16.3157 20.7992L16.3152 20.799C16.0616 20.7011 15.8046 20.602 15.5445 20.5029C13.7992 19.8382 11.9291 19.1864 10.1429 19.104C8.44926 19.0259 6.81596 19.4594 5.42898 20.8455C5.30651 20.9488 5.19513 21.0676 5.09716 21.2038C5.06479 21.2477 5.04059 21.2955 5.02444 21.3452C5.00338 21.4098 4.99609 21.4773 5.00188 21.5434C5.01341 21.675 5.07673 21.8013 5.18638 21.8894C5.23411 21.9279 5.28699 21.9563 5.34229 21.9746C5.41119 21.9975 5.48338 22.0047 5.5538 21.9971C5.67643 21.9838 5.79368 21.9254 5.87878 21.8264C5.95145 21.7442 6.02492 21.6654 6.09916 21.5899C6.31183 21.4216 6.6245 21.3042 7.06952 21.2533C7.67454 21.1841 8.4485 21.2482 9.35657 21.4119C10.8012 21.6725 12.4825 22.1643 14.2056 22.6683L14.2056 22.6683L14.2056 22.6683L14.2057 22.6683L14.2066 22.6686C14.6527 22.7991 15.1016 22.9304 15.5499 23.0587C17.6922 23.6719 19.8429 24.2239 21.4692 24.1971C22.2846 24.1836 23.0489 24.025 23.6162 23.5801C24.2078 23.1162 24.4991 22.4111 24.5 21.504C24.5 21.4981 24.5 21.4922 24.4998 21.4863C24.4978 21.4113 24.4793 21.3405 24.4478 21.2772C24.4203 21.222 24.3822 21.1711 24.3338 21.1278C24.3004 21.0978 24.263 21.0722 24.2224 21.0521C24.1771 21.0295 24.128 21.0137 24.0762 21.0058C24.0453 21.001 24.0141 20.9992 23.9831 21.0003C23.9105 21.0027 23.8417 21.0206 23.7801 21.0508C23.7202 21.0801 23.6654 21.1218 23.6196 21.1755L23.6154 21.1805L23.6064 21.1916ZM20.9569 23.1867C21.0197 23.1902 21.0817 23.1929 21.1428 23.1947C21.0812 23.1923 21.0194 23.189 20.9574 23.1847L20.9569 23.1867Z" fill="#475467"/>
<circle cx="15" cy="15" r="14" stroke="#475467" stroke-width="2"/>
</svg>
