<svg width="30" height="30" viewBox="0 0 30 30" fill="none" xmlns="http://www.w3.org/2000/svg">
<path fill-rule="evenodd" clip-rule="evenodd" d="M5.5 21.9803C5.50051 22.7859 5.82152 23.3992 6.42133 23.7862C6.98156 24.1476 7.72978 24.275 8.53228 24.2859C10.1433 24.3078 12.2818 23.8571 14.4271 23.352C14.8744 23.2466 15.3228 23.1387 15.7687 23.0314C17.4922 22.6167 19.1789 22.2108 20.6281 21.9957C21.5389 21.8606 22.3228 21.8065 22.9405 21.8646C23.4049 21.9083 23.7256 22.0107 23.937 22.1478C24.0105 22.2094 24.0832 22.2735 24.1551 22.3404C24.1909 22.3746 24.2307 22.4025 24.2732 22.4241C24.3435 22.4599 24.4203 22.478 24.4971 22.4784C24.567 22.4788 24.6371 22.4647 24.7025 22.4357C24.7553 22.4123 24.8048 22.3795 24.8483 22.3372C24.8896 22.2971 24.9226 22.2515 24.9471 22.2025C24.9811 22.1347 24.9986 22.0611 24.9999 21.9873C25.0021 21.8649 24.9595 21.7422 24.8733 21.6457C24.7725 21.5305 24.659 21.4308 24.5352 21.3447C23.1455 20.2021 21.5262 19.8553 19.8612 19.9185C18.0903 19.9857 16.2311 20.5179 14.4839 21.0654C14.2245 21.1467 13.9678 21.2281 13.7143 21.3087C12.2316 21.7794 10.8537 22.2169 9.62533 22.3897C8.19543 22.5908 7.11537 22.4107 6.36065 21.6321C6.35633 21.6276 6.35192 21.6231 6.34743 21.6188C6.3028 21.5756 6.25203 21.5424 6.19795 21.5191C6.13724 21.4929 6.07032 21.4784 6 21.4784C5.93149 21.4784 5.8662 21.4922 5.80674 21.5171C5.75783 21.5376 5.71148 21.5662 5.66973 21.603C5.66039 21.6112 5.65136 21.6198 5.64266 21.6287C5.59839 21.6738 5.5644 21.7254 5.54071 21.7804C5.51505 21.8399 5.5006 21.9053 5.50002 21.9741C5.5 21.9755 5.5 21.9769 5.5 21.9784C5.5 21.979 5.5 21.9797 5.5 21.9803Z" fill="#475467"/>
<rect x="16" y="5" width="2" height="15" rx="1" fill="#475467"/>
<path d="M17 14.5C15.2014 14.8121 14.3284 14.8279 13.5 14C12.8489 13.0024 12.7477 12.3418 13 11M17 13C18.7466 13.6917 19.5329 13.629 20.5 12.5C21.1565 11.299 21.1489 10.3315 21 8.5" stroke="#475467" stroke-width="2" stroke-linecap="round" stroke-linejoin="round"/>
<path d="M12 6.5C12 7.88071 10.8807 9 9.5 9C8.11929 9 7 7.88071 7 6.5C7 5.11929 8.11929 4 9.5 4C10.8807 4 12 5.11929 12 6.5Z" fill="#475467"/>
<circle cx="15" cy="15" r="14" stroke="#475467" stroke-width="2"/>
</svg>
