<svg width="30" height="30" viewBox="0 0 30 30" fill="none" xmlns="http://www.w3.org/2000/svg">
<mask id="path-1-inside-1" fill="white">
<path fill-rule="evenodd" clip-rule="evenodd" d="M8 15.95C7.83844 15.9828 7.67123 16 7.5 16C6.11929 16 5 14.8807 5 13.5C5 13.117 5.08611 12.7542 5.24002 12.4298C4.48863 11.8846 4 10.9993 4 10C4 8.34315 5.34315 7 7 7C7.20331 7 7.4019 7.02023 7.59387 7.05877C8.05244 6.41101 8.73622 6 9.5 6C10.2421 6 10.9087 6.38801 11.3665 7.0042C11.4107 7.00141 11.4552 7 11.5 7C12.8807 7 14 8.34315 14 10C14 11.0783 13.5259 12.0237 12.8142 12.5525C12.934 12.8447 13 13.1647 13 13.5C13 14.8807 11.8807 16 10.5 16C10.3288 16 10.1616 15.9828 10 15.95V23H8V15.95Z"/>
</mask>
<path d="M8 15.95H9V14.7266L7.80107 14.97L8 15.95ZM5.24002 12.4298L6.1435 12.8584L6.49944 12.1081L5.8273 11.6204L5.24002 12.4298ZM7.59387 7.05877L7.39699 8.0392L8.0344 8.1672L8.41005 7.63657L7.59387 7.05877ZM11.3665 7.0042L10.5639 7.60063L10.8877 8.03641L11.4295 8.00222L11.3665 7.0042ZM12.8142 12.5525L12.2178 11.7498L11.5944 12.2131L11.8889 12.9318L12.8142 12.5525ZM10 15.95L10.1989 14.97L9 14.7266V15.95H10ZM10 23V24H11V23H10ZM8 23H7V24H8V23ZM7.80107 14.97C7.70462 14.9896 7.60405 15 7.5 15V17C7.73842 17 7.97227 16.976 8.19893 16.93L7.80107 14.97ZM7.5 15C6.67157 15 6 14.3284 6 13.5H4C4 15.433 5.567 17 7.5 17V15ZM6 13.5C6 13.2684 6.0518 13.0517 6.1435 12.8584L4.33653 12.0011C4.12041 12.4567 4 12.9657 4 13.5H6ZM5.8273 11.6204C5.32403 11.2552 5 10.6655 5 10H3C3 11.3332 3.65324 12.5139 4.65273 13.2391L5.8273 11.6204ZM5 10C5 8.89543 5.89543 8 7 8V6C4.79086 6 3 7.79086 3 10H5ZM7 8C7.13684 8 7.26949 8.0136 7.39699 8.0392L7.79075 6.07835C7.53432 6.02685 7.26979 6 7 6V8ZM8.41005 7.63657C8.71606 7.2043 9.1167 7 9.5 7V5C8.35574 5 7.38881 5.61772 6.77769 6.48098L8.41005 7.63657ZM9.5 7C9.87307 7 10.2609 7.19284 10.5639 7.60063L12.1692 6.40777C11.5565 5.58319 10.6111 5 9.5 5V7ZM11.4295 8.00222C11.4528 8.00075 11.4763 8 11.5 8V6C11.4342 6 11.3687 6.00208 11.3036 6.00619L11.4295 8.00222ZM11.5 8C12.1655 8 13 8.71697 13 10H15C15 7.96932 13.596 6 11.5 6V8ZM13 10C13 10.7968 12.6489 11.4296 12.2178 11.7498L13.4106 13.3552C14.403 12.6179 15 11.3598 15 10H13ZM11.8889 12.9318C11.9602 13.1057 12 13.297 12 13.5H14C14 13.0324 13.9077 12.5838 13.7395 12.1733L11.8889 12.9318ZM12 13.5C12 14.3284 11.3284 15 10.5 15V17C12.433 17 14 15.433 14 13.5H12ZM10.5 15C10.396 15 10.2954 14.9896 10.1989 14.97L9.80107 16.93C10.0277 16.976 10.2616 17 10.5 17V15ZM9 15.95V23H11V15.95H9ZM10 22H8V24H10V22ZM9 23V15.95H7V23H9Z" fill="#475467" mask="url(#path-1-inside-1)"/>
<mask id="path-3-inside-2" fill="white">
<path fill-rule="evenodd" clip-rule="evenodd" d="M17.0666 13.827C16.6895 13.3195 16.1406 13 15.5294 13C14.9004 13 14.3373 13.3385 13.9597 13.8719C13.8016 13.8402 13.638 13.8235 13.4706 13.8235C12.1061 13.8235 11 14.9296 11 16.2941C11 17.1171 11.4024 17.8461 12.0212 18.2951C11.8944 18.5623 11.8235 18.8611 11.8235 19.1765C11.8235 20.3135 12.7453 21.2353 13.8824 21.2353C14.0103 21.2353 14.1489 21.2341 14.2941 21.2302V27H15.9412V21.23C16.0838 21.234 16.2222 21.2353 16.3529 21.2353C17.49 21.2353 18.4118 20.3135 18.4118 19.1765C18.4118 18.9003 18.3574 18.6368 18.2588 18.3962C18.8449 17.9607 19.2353 17.1821 19.2353 16.2941C19.2353 14.9296 18.3135 13.8235 17.1765 13.8235C17.1396 13.8235 17.103 13.8247 17.0666 13.827Z"/>
</mask>
<path d="M17.0666 13.827L16.2639 14.4234L16.5877 14.8592L17.1296 14.825L17.0666 13.827ZM13.9597 13.8719L13.7628 14.8524L14.4002 14.9804L14.7758 14.4497L13.9597 13.8719ZM12.0212 18.2951L12.9247 18.7237L13.2806 17.9734L12.6085 17.4857L12.0212 18.2951ZM14.2941 21.2302H15.2941V20.2035L14.2678 20.2306L14.2941 21.2302ZM14.2941 27H13.2941V28H14.2941V27ZM15.9412 27V28H16.9412V27H15.9412ZM15.9412 21.23L15.9694 20.2304L14.9412 20.2013V21.23H15.9412ZM18.2588 18.3962L17.6624 17.5935L17.0389 18.0567L17.3335 18.7754L18.2588 18.3962ZM15.5294 14C15.7715 14 16.0417 14.1244 16.2639 14.4234L17.8692 13.2306C17.3373 12.5147 16.5096 12 15.5294 12V14ZM14.7758 14.4497C15.0009 14.1318 15.2809 14 15.5294 14V12C14.5199 12 13.6737 12.5452 13.1435 13.2941L14.7758 14.4497ZM13.4706 14.8235C13.5715 14.8235 13.6691 14.8336 13.7628 14.8524L14.1565 12.8915C13.934 12.8468 13.7045 12.8235 13.4706 12.8235V14.8235ZM12 16.2941C12 15.4819 12.6584 14.8235 13.4706 14.8235V12.8235C11.5538 12.8235 10 14.3774 10 16.2941H12ZM12.6085 17.4857C12.2378 17.2168 12 16.7832 12 16.2941H10C10 17.451 10.567 18.4755 11.4339 19.1045L12.6085 17.4857ZM12.8235 19.1765C12.8235 19.0124 12.8601 18.8598 12.9247 18.7237L11.1177 17.8665C10.9287 18.2648 10.8235 18.7097 10.8235 19.1765H12.8235ZM13.8824 20.2353C13.2976 20.2353 12.8235 19.7612 12.8235 19.1765H10.8235C10.8235 20.8658 12.193 22.2353 13.8824 22.2353V20.2353ZM14.2678 20.2306C14.1334 20.2341 14.0039 20.2353 13.8824 20.2353V22.2353C14.0166 22.2353 14.1643 22.234 14.3205 22.2299L14.2678 20.2306ZM15.2941 27V21.2302H13.2941V27H15.2941ZM15.9412 26H14.2941V28H15.9412V26ZM14.9412 21.23V27H16.9412V21.23H14.9412ZM16.3529 20.2353C16.2286 20.2353 16.1 20.2341 15.9694 20.2304L15.9129 22.2296C16.0675 22.2339 16.2157 22.2353 16.3529 22.2353V20.2353ZM17.4118 19.1765C17.4118 19.7612 16.9377 20.2353 16.3529 20.2353V22.2353C18.0423 22.2353 19.4118 20.8658 19.4118 19.1765H17.4118ZM17.3335 18.7754C17.3836 18.8978 17.4118 19.0326 17.4118 19.1765H19.4118C19.4118 18.768 19.3312 18.3759 19.1841 18.017L17.3335 18.7754ZM18.2353 16.2941C18.2353 16.9006 17.9678 17.3666 17.6624 17.5935L18.8552 19.1989C19.7219 18.5549 20.2353 17.4636 20.2353 16.2941H18.2353ZM17.1765 14.8235C17.5983 14.8235 18.2353 15.3035 18.2353 16.2941H20.2353C20.2353 14.5558 19.0288 12.8235 17.1765 12.8235V14.8235ZM17.1296 14.825C17.145 14.824 17.1606 14.8235 17.1765 14.8235V12.8235C17.1186 12.8235 17.0609 12.8254 17.0036 12.829L17.1296 14.825Z" fill="#475467" mask="url(#path-3-inside-2)"/>
<mask id="path-5-inside-3" fill="white">
<path fill-rule="evenodd" clip-rule="evenodd" d="M23.0666 7.82699C22.6895 7.31954 22.1406 7 21.5294 7C20.9004 7 20.3373 7.33848 19.9597 7.87193C19.8016 7.84019 19.638 7.82353 19.4706 7.82353C18.1061 7.82353 17 8.92965 17 10.2941C17 11.1171 17.4024 11.8461 18.0212 12.2951C17.8944 12.5623 17.8235 12.8611 17.8235 13.1765C17.8235 14.3135 18.7453 15.2353 19.8824 15.2353C19.9212 15.2353 19.9604 15.2346 20 15.2332V21H22V15.2315C22.1218 15.2343 22.2402 15.2353 22.3529 15.2353C23.49 15.2353 24.4118 14.3135 24.4118 13.1765C24.4118 12.9003 24.3574 12.6368 24.2588 12.3962C24.8449 11.9607 25.2353 11.1821 25.2353 10.2941C25.2353 8.92965 24.3135 7.82353 23.1765 7.82353C23.1396 7.82353 23.103 7.82469 23.0666 7.82699Z"/>
</mask>
<path d="M23.0666 7.82699L22.2639 8.42342L22.5877 8.8592L23.1296 8.825L23.0666 7.82699ZM19.9597 7.87193L19.7628 8.85236L20.4002 8.98036L20.7758 8.44973L19.9597 7.87193ZM18.0212 12.2951L18.9247 12.7237L19.2806 11.9734L18.6085 11.4857L18.0212 12.2951ZM20 15.2332H21V14.1974L19.9648 14.2338L20 15.2332ZM20 21H19V22H20V21ZM22 21V22H23V21H22ZM22 15.2315L22.0234 14.2318L21 14.2078V15.2315H22ZM24.2588 12.3962L23.6624 11.5935L23.0389 12.0567L23.3335 12.7754L24.2588 12.3962ZM21.5294 8C21.7715 8 22.0417 8.12437 22.2639 8.42342L23.8692 7.23056C23.3373 6.51471 22.5096 6 21.5294 6V8ZM20.7758 8.44973C21.0009 8.13177 21.2809 8 21.5294 8V6C20.5199 6 19.6737 6.54519 19.1435 7.29413L20.7758 8.44973ZM19.4706 8.82353C19.5715 8.82353 19.6691 8.83356 19.7628 8.85236L20.1565 6.8915C19.934 6.84681 19.7045 6.82353 19.4706 6.82353V8.82353ZM18 10.2941C18 9.48193 18.6584 8.82353 19.4706 8.82353V6.82353C17.5538 6.82353 16 8.37736 16 10.2941H18ZM18.6085 11.4857C18.2378 11.2168 18 10.7832 18 10.2941H16C16 11.451 16.567 12.4755 17.4339 13.1045L18.6085 11.4857ZM18.8235 13.1765C18.8235 13.0124 18.8601 12.8598 18.9247 12.7237L17.1177 11.8665C16.9287 12.2648 16.8235 12.7097 16.8235 13.1765H18.8235ZM19.8824 14.2353C19.2976 14.2353 18.8235 13.7612 18.8235 13.1765H16.8235C16.8235 14.8658 18.193 16.2353 19.8824 16.2353V14.2353ZM19.9648 14.2338C19.9367 14.2348 19.9092 14.2353 19.8824 14.2353V16.2353C19.9332 16.2353 19.9841 16.2344 20.0352 16.2326L19.9648 14.2338ZM21 21V15.2332H19V21H21ZM22 20H20V22H22V20ZM21 15.2315V21H23V15.2315H21ZM22.3529 14.2353C22.2458 14.2353 22.1355 14.2344 22.0234 14.2318L21.9766 16.2312C22.1082 16.2343 22.2346 16.2353 22.3529 16.2353V14.2353ZM23.4118 13.1765C23.4118 13.7612 22.9377 14.2353 22.3529 14.2353V16.2353C24.0423 16.2353 25.4118 14.8658 25.4118 13.1765H23.4118ZM23.3335 12.7754C23.3836 12.8978 23.4118 13.0326 23.4118 13.1765H25.4118C25.4118 12.768 25.3312 12.3759 25.1841 12.017L23.3335 12.7754ZM24.2353 10.2941C24.2353 10.9006 23.9678 11.3666 23.6624 11.5935L24.8552 13.1989C25.7219 12.5549 26.2353 11.4636 26.2353 10.2941H24.2353ZM23.1765 8.82353C23.5983 8.82353 24.2353 9.30347 24.2353 10.2941H26.2353C26.2353 8.55582 25.0288 6.82353 23.1765 6.82353V8.82353ZM23.1296 8.825C23.145 8.82403 23.1606 8.82353 23.1765 8.82353V6.82353C23.1186 6.82353 23.0609 6.82536 23.0036 6.82898L23.1296 8.825Z" fill="#475467" mask="url(#path-5-inside-3)"/>
<circle cx="15" cy="15" r="14" stroke="#475467" stroke-width="2"/>
</svg>
