<svg width="30" height="30" viewBox="0 0 30 30" fill="none" xmlns="http://www.w3.org/2000/svg">
<path fill-rule="evenodd" clip-rule="evenodd" d="M16.5577 5.85006C16.7512 5.48329 17.2813 5.49785 17.4544 5.87469L24.9544 22.208C25.1065 22.5392 24.8645 22.9167 24.5 22.9167H4.99999C4.63009 22.9167 4.38825 22.5289 4.55096 22.1967L10.551 9.94673C10.7274 9.58642 11.2351 9.57025 11.4341 9.9186L12.0791 11.0474C12.4705 11.7324 13.4638 11.7156 13.8319 11.0178L16.5577 5.85006ZM14.8618 11.2087C15.1521 10.6583 15.8691 10.5039 16.3603 10.8859L16.693 11.1447C16.8736 11.2851 17.1264 11.2851 17.307 11.1447L17.3917 11.0787C17.9006 10.683 18.6454 10.865 18.9144 11.4508L23.0694 20.4994C23.3736 21.1618 22.8896 21.9167 22.1606 21.9167H7.40495C6.66514 21.9167 6.18147 21.1412 6.50688 20.4768L9.77209 13.8103C9.94996 13.4472 10.3988 13.3115 10.7481 13.5152C10.9567 13.6369 11.2224 13.5921 11.3796 13.4087C11.6419 13.1027 12.1283 13.1489 12.3282 13.4989L12.5659 13.9147C12.7616 14.2572 13.2582 14.2488 13.4422 13.8999L14.8618 11.2087Z" fill="#475467"/>
<circle cx="15" cy="15" r="14" stroke="#475467" stroke-width="2"/>
</svg>
