<svg width="30" height="30" viewBox="0 0 30 30" fill="none" xmlns="http://www.w3.org/2000/svg">
<circle cx="15" cy="15" r="14" stroke="#475467" stroke-width="2"/>
<path fill-rule="evenodd" clip-rule="evenodd" d="M17.7001 21.809C17.3094 21.8718 16.9085 21.9045 16.5 21.9045C12.3579 21.9045 9 18.5466 9 14.4045C9 12.2815 9.88213 10.3644 11.2999 9C7.72821 9.57443 5 12.6709 5 16.4045C5 20.5466 8.35786 23.9045 12.5 23.9045C14.5191 23.9045 16.3518 23.1066 17.7001 21.809Z" fill="#475467"/>
<path d="M14.5 4L15.0613 5.72746H16.8776L15.4082 6.79508L15.9695 8.52254L14.5 7.45492L13.0305 8.52254L13.5918 6.79508L12.1224 5.72746H13.9387L14.5 4Z" fill="#475467"/>
<path d="M21 7L21.449 8.38197H22.9021L21.7265 9.23607L22.1756 10.618L21 9.76393L19.8244 10.618L20.2735 9.23607L19.0979 8.38197H20.551L21 7Z" fill="#475467"/>
<path d="M21.5 14L22.0613 15.7275H23.8776L22.4082 16.7951L22.9695 18.5225L21.5 17.4549L20.0305 18.5225L20.5918 16.7951L19.1224 15.7275H20.9387L21.5 14Z" fill="#475467"/>
</svg>
