<svg width="30" height="30" viewBox="0 0 30 30" fill="none" xmlns="http://www.w3.org/2000/svg">
<path d="M7 23.5277C12.7436 21.2943 16.4359 25.3144 22.5897 23.5277M7 7.00072C8.64103 7.00072 10.2198 6.96231 11.9231 7.44739M23 7.00072C20.5385 7.00072 20.0346 7.11589 18.4872 7.44739M11.9231 7.44739V19.5076M11.9231 7.44739H18.4872M18.4872 7.44739V20.8476M13.5641 9.23409V12.8075M15.2051 10.1274V14.1475M13.9744 15.4875V17.7209M17.2564 8.78742V12.8075M16.4359 14.5942V18.1676M7 20.8476C11.7923 18.4023 18.9837 22.9773 22.5897 20.8476" stroke="#475467" stroke-linecap="round"/>
<circle cx="15" cy="15" r="14" stroke="#475467" stroke-width="2"/>
</svg>
