<svg width="30" height="30" viewBox="0 0 30 30" fill="none" xmlns="http://www.w3.org/2000/svg">
<path d="M24.5 10.3333C24.5 10.8893 24.2022 11.4311 23.7438 11.8497C23.2789 12.2741 22.7271 12.5 22.3333 12.5C22.1787 12.5 21.9192 12.4279 21.5848 12.2467C21.2621 12.0718 20.914 11.8193 20.5937 11.5202C20.2731 11.2208 19.9927 10.8864 19.7956 10.5538C19.5958 10.2169 19.5 9.91361 19.5 9.66667C19.5 9.18218 19.8832 8.646 20.5376 8.1918C21.181 7.7452 21.9159 7.5 22.3333 7.5C22.476 7.5 22.685 7.56381 22.9422 7.73213C23.1932 7.89635 23.4549 8.1375 23.6931 8.43007C24.1801 9.02815 24.5 9.75294 24.5 10.3333Z" stroke="#475467"/>
<path d="M13.3019 7.58094C13.6023 6.98529 13.9931 6.41221 14.5441 5.73076C15.1939 6.36871 15.616 6.91165 15.9031 7.48875C16.1838 8.05286 16.349 8.67677 16.448 9.5H12.6232C12.8058 8.74707 13.0167 8.1466 13.3019 7.58094Z" stroke="#475467"/>
<mask id="path-3-inside-1" fill="white">
<path fill-rule="evenodd" clip-rule="evenodd" d="M5.34916 16.1607C5.12427 15.8037 4.99999 15.4115 4.99999 15C4.99999 13.3431 7.01471 12 9.49999 12C11.6037 12 13.3702 13.0747 14.1663 14.0112C14.2761 14.0038 14.3874 14 14.5 14C16.3009 14 17.7841 14.9715 17.9784 16.2209C19.7375 16.7645 21 18.2512 21 20C21 20.9526 20.6254 21.8274 20 22.5144C19.9933 24.4408 18.6527 26 17 26C16.2893 26 15.3604 25.8957 14.5312 25.624C13.921 25.8645 13.2309 26 12.5 26C10.051 26 8.059 24.4785 8.00129 22.5845C6.23469 21.8133 5 20.0508 5 18C5 17.3505 5.12383 16.73 5.34916 16.1607Z"/>
</mask>
<path d="M5.34916 16.1607L6.19529 15.6277L6.4657 16.057L6.27898 16.5287L5.34916 16.1607ZM14.1663 14.0112L14.2337 15.0089L13.7308 15.0429L13.4044 14.6589L14.1663 14.0112ZM17.9784 16.2209L17.6831 17.1763L17.0863 16.9918L16.9903 16.3746L17.9784 16.2209ZM20 22.5144L19 22.5109L19.0013 22.1259L19.2605 21.8412L20 22.5144ZM14.5312 25.624L14.1646 24.6936L14.5 24.5615L14.8426 24.6737L14.5312 25.624ZM8.00129 22.5845L8.4014 21.6681L8.98154 21.9213L9.00082 22.5541L8.00129 22.5845ZM4.50304 16.6937C4.1889 16.195 3.99999 15.6202 3.99999 15H5.99999C5.99999 15.2028 6.05964 15.4123 6.19529 15.6277L4.50304 16.6937ZM3.99999 15C3.99999 13.7332 4.77019 12.7087 5.76331 12.0466C6.76342 11.3799 8.08746 11 9.49999 11V13C8.42724 13 7.50128 13.2917 6.87271 13.7107C6.23716 14.1344 5.99999 14.61 5.99999 15H3.99999ZM9.49999 11C11.9175 11 13.9558 12.2196 14.9282 13.3635L13.4044 14.6589C12.7846 13.9298 11.2898 13 9.49999 13V11ZM14.0989 13.0135C14.2312 13.0046 14.365 13 14.5 13V15C14.4099 15 14.3211 15.003 14.2337 15.0089L14.0989 13.0135ZM14.5 13C15.5738 13 16.5863 13.2885 17.3828 13.801C18.1739 14.31 18.8142 15.0876 18.9666 16.0672L16.9903 16.3746C16.9484 16.1048 16.7499 15.772 16.3006 15.4829C15.8567 15.1973 15.2271 15 14.5 15V13ZM18.2737 15.2655C20.3743 15.9147 22 17.7366 22 20H20C20 18.7658 19.1007 17.6144 17.6831 17.1763L18.2737 15.2655ZM22 20C22 21.2241 21.5167 22.3338 20.7394 23.1876L19.2605 21.8412C19.7341 21.321 20 20.6811 20 20H22ZM21 22.5178C20.9919 24.8455 19.3422 27 17 27V25C17.9632 25 18.9947 24.036 19 22.5109L21 22.5178ZM17 27C16.2091 27 15.1712 26.886 14.2199 26.5743L14.8426 24.6737C15.5496 24.9054 16.3696 25 17 25V27ZM14.8979 26.5544C14.1685 26.8418 13.3538 27 12.5 27V25C13.108 25 13.6735 24.8872 14.1646 24.6936L14.8979 26.5544ZM12.5 27C9.74656 27 7.08227 25.2574 7.00175 22.615L9.00082 22.5541C9.03572 23.6995 10.3555 25 12.5 25V27ZM7.60117 23.501C5.48335 22.5764 4 20.4625 4 18H6C6 19.6391 6.98604 21.0501 8.4014 21.6681L7.60117 23.501ZM4 18C4 17.2225 4.14841 16.4772 4.41935 15.7927L6.27898 16.5287C6.09925 16.9828 6 17.4786 6 18H4Z" fill="#475467" mask="url(#path-3-inside-1)"/>
<path d="M14.5 10V11.5M22 12.5V15.5" stroke="#475467" stroke-linecap="round"/>
<path d="M8 17H13.5M10 20.5H17.5" stroke="#475467" stroke-linecap="round"/>
<circle cx="15" cy="15" r="14" stroke="#475467" stroke-width="2"/>
</svg>
